<svg width="54" height="61" viewBox="0 0 54 61" fill="none" xmlns="http://www.w3.org/2000/svg">
<path d="M30.8772 0C31.6609 0 32.3192 0.6405 32.3192 1.403V11.224C32.3192 16.8055 37.0213 21.3805 42.7892 21.411C45.1403 21.411 47.0525 21.4415 48.4631 21.4415L48.9972 21.4392C49.9608 21.4322 51.2583 21.411 52.3815 21.411C53.1966 21.411 53.8235 22.021 53.8235 22.7835V47.3055C53.8235 54.8695 47.4914 61 39.7172 61H14.796C6.61431 61 0 54.5645 0 46.6345V13.7555C0 6.1915 6.30083 0 14.1377 0H30.8772ZM25.7676 20.557C24.4823 20.557 23.4165 21.5635 23.4165 22.8445V37.5455L18.4323 32.6655C17.5232 31.781 16.0499 31.781 15.1408 32.6655C14.2317 33.55 14.2317 34.9835 15.1408 35.8985L24.1062 44.652C24.3256 44.8655 24.5764 45.018 24.8585 45.14C25.1406 45.262 25.4541 45.323 25.7676 45.323C26.0811 45.323 26.3632 45.262 26.6453 45.14C26.9274 45.018 27.1782 44.8655 27.3976 44.652L36.3944 35.8985C37.3034 34.9835 37.3034 33.55 36.363 32.6655C35.4539 31.781 33.9806 31.781 33.0715 32.6655L28.0873 37.5455V22.8445C28.0873 21.5635 27.0528 20.557 25.7676 20.557ZM36.8693 2.7636C36.8693 1.44905 38.5087 0.796355 39.4429 1.7449C42.8347 5.1731 48.7562 11.1664 52.0665 14.5153C52.9819 15.4394 52.311 16.9736 50.9882 16.9766C48.4145 16.9858 45.377 16.9766 43.1921 16.9553C39.725 16.9553 36.8693 14.1767 36.8693 10.8034V2.7636Z" fill="#008000" fill-opacity="0.6"/>
</svg>
