<svg width="25" height="26" viewBox="0 0 25 26" fill="none" xmlns="http://www.w3.org/2000/svg">
<path d="M9.05873 23.5257V19.8456C9.05871 18.9096 9.82851 18.149 10.7823 18.1427H14.2759C15.2343 18.1427 16.0111 18.9051 16.0111 19.8456V19.8456V23.5371C16.0109 24.3318 16.6573 24.9814 17.4668 25H19.7959C22.1178 25 24 23.1528 24 20.8742V20.8742V10.4054C23.9876 9.50899 23.5587 8.66722 22.8354 8.11964L14.8699 1.82236C13.4744 0.72588 11.4907 0.72588 10.0952 1.82236L2.16456 8.13107C1.43852 8.67643 1.00894 9.5196 1 10.4168V20.8742C1 23.1528 2.88222 25 5.20405 25H7.53316C8.36285 25 9.03544 24.3399 9.03544 23.5257V23.5257" stroke="#92929D" stroke-width="2" stroke-linecap="round" stroke-linejoin="round"/>
</svg>
