<svg width="23" height="28" viewBox="0 0 23 28" fill="none" xmlns="http://www.w3.org/2000/svg">
<path d="M22.2215 17.4843L19.9375 15.0311V11.7812C19.9349 9.53542 19.1571 7.37039 17.7544 5.70483C16.3518 4.03926 14.424 2.99147 12.3438 2.76406V0.90625H10.6562V2.76406C8.57605 2.99147 6.64824 4.03926 5.24559 5.70483C3.84295 7.37039 3.06512 9.53542 3.0625 11.7812V15.0311L0.778469 17.4843C0.620224 17.6542 0.531298 17.8847 0.53125 18.125V20.8437C0.53125 21.0841 0.620145 21.3146 0.778379 21.4846C0.936612 21.6545 1.15122 21.75 1.375 21.75H7.28125V22.4542C7.2629 23.6039 7.64018 24.7204 8.34082 25.5898C9.04145 26.4592 10.0161 27.0204 11.0781 27.1657C11.6647 27.2282 12.2569 27.1581 12.8167 26.96C13.3766 26.7619 13.8916 26.4401 14.3287 26.0154C14.7658 25.5906 15.1153 25.0723 15.3547 24.4938C15.5941 23.9153 15.7181 23.2893 15.7188 22.6562V21.75H21.625C21.8488 21.75 22.0634 21.6545 22.2216 21.4846C22.3799 21.3146 22.4688 21.0841 22.4688 20.8437V18.125C22.4687 17.8847 22.3798 17.6542 22.2215 17.4843ZM14.0312 22.6562C14.0312 23.3773 13.7646 24.0688 13.2899 24.5787C12.8152 25.0886 12.1713 25.375 11.5 25.375C10.8287 25.375 10.1848 25.0886 9.71014 24.5787C9.23543 24.0688 8.96875 23.3773 8.96875 22.6562V21.75H14.0312V22.6562ZM20.7812 19.9375H2.21875V18.5002L4.50278 16.047C4.66103 15.8771 4.74995 15.6466 4.75 15.4062V11.7812C4.75 9.85843 5.46116 8.01436 6.72703 6.65473C7.9929 5.29509 9.70979 4.53125 11.5 4.53125C13.2902 4.53125 15.0071 5.29509 16.273 6.65473C17.5388 8.01436 18.25 9.85843 18.25 11.7812V15.4062C18.25 15.6466 18.339 15.8771 18.4972 16.047L20.7812 18.5002V19.9375Z" fill="black" fill-opacity="0.75"/>
</svg>
